#!OML:ASF F:\VICON\USERDATA\INSTALL\rory3\rory3.ASF
:FULLY-SPECIFIED
:DEGREES
345
root 2.22362 17.7647 0.787826 3.38594 14.883 -6.10814
lowerback 8.90514 4.19333 2.67233
upperback 0.347558 5.69523 -3.58688
thorax -3.98728 2.75445 -5.92033
lowerneck -22.8161 -14.6361 -14.0909
upperneck -6.4141 -16.1764 17.6584
head 4.22715 -6.91147 5.89181
rclavicle 1.02573e-013 -1.11319e-014
rhumerus 68.4099 -18.485 -22.9634
rradius 45.7795
rwrist 49.1067
rhand -56.2049 -4.23987
rfingers 7.12502
rthumb -28.532 -32.0831
lclavicle 1.02573e-013 -1.11319e-014
lhumerus -38.9013 16.0299 61.6264
lradius 38.6485
lwrist -4.21326
lhand -17.0594 25.046
lfingers 7.12502
lthumb 9.17799 54.8263
rfemur -7.50832 -5.43108 16.1603
rtibia 21.4794
rfoot -17.5469 -13.3951
rtoes 2.35335
lfemur -17.2995 -1.44769 -10.2877
ltibia 32.5715
lfoot -17.3527 -3.19773
ltoes -21.1358
346
root 2.19347 17.7682 0.789632 3.34136 14.7595 -6.02678
lowerback 8.90339 4.13216 2.64135
upperback 0.351933 5.61114 -3.57241
thorax -3.99605 2.71299 -5.87876
lowerneck -22.8713 -14.6333 -13.9543
upperneck -6.16217 -16.2272 17.5283
head 4.29391 -6.939 5.81423
rclavicle -9.54166e-014 7.63333e-014
rhumerus 68.0876 -18.6573 -22.6344
rradius 45.6501
rwrist 49.032
rhand -56.4056 -4.227
rfingers 7.12502
rthumb -28.7238 -32.0379
lclavicle -9.54166e-014 7.63333e-014
lhumerus -38.8763 15.8885 61.4552
lradius 38.6291
lwrist -4.23604
lhand -16.852 24.9476
lfingers 7.12502
lthumb 9.37817 54.719
rfemur -7.5524 -5.46829 16.1736
rtibia 21.6401
rfoot -17.5585 -13.4114
rtoes 1.86815
lfemur -17.1268 -1.50342 -10.2594
ltibia 32.3917
lfoot -17.2722 -3.09117
ltoes -21.1237
347
root 2.16304 17.7703 0.794701 3.26958 14.6218 -5.92639
lowerback 8.84308 4.09368 2.60284
upperback 0.439264 5.55732 -3.54916
thorax -3.8833 2.69221 -5.81598
lowerneck -22.9486 -14.6671 -13.8741
upperneck -6.02295 -16.2957 17.4327
head 4.33899 -6.97282 5.75478
rclavicle 7.196e-014 4.77083e-015
rhumerus 67.763 -18.9189 -22.2563
rradius 45.522
rwrist 48.8778
rhand -56.243 -2.96031
rfingers 7.12502
rthumb -28.5684 -30.7975
lclavicle 7.196e-014 4.77083e-015
lhumerus -38.6433 15.9336 61.3524
lradius 38.45
lwrist -4.41554
lhand -16.8765 24.8232
lfingers 7.12502
lthumb 9.35453 54.5956
rfemur -7.56217 -5.42011 16.1747
rtibia 21.8301
rfoot -17.6479 -13.3967
rtoes 1.88613
lfemur -16.8931 -1.56675 -10.258
ltibia 32.2169
lfoot -17.1954 -2.9188
ltoes -21.0944
348
root 2.13241 17.7679 0.795393 3.26459 14.4298 -5.74928
lowerback 8.77658 4.04037 2.49271
upperback 0.58423 5.4778 -3.5102
thorax -3.71806 2.66226 -5.69008
lowerneck -23.2614 -14.7291 -13.9637
upperneck -5.97103 -16.3208 17.4871
head 4.41293 -6.96353 5.76785
rclavicle 9.14409e-015 4.6118e-014
rhumerus 67.6197 -19.2272 -22.0919
rradius 45.4236
rwrist 48.8109
rhand -56.3827 -3.62933
rfingers 7.12502
rthumb -28.7019 -31.444
lclavicle 9.14409e-015 4.6118e-014
lhumerus -38.2636 16.2449 61.3215
lradius 38.187
lwrist -4.53509
lhand -17.049 24.8415
lfingers 7.12502
lthumb 9.18803 54.6213
rfemur -7.67967 -5.35934 16.0836
rtibia 22.0356
rfoot -17.7173 -13.2717
rtoes 1.8667
lfemur -16.7029 -1.65436 -10.3388
ltibia 32.0371
lfoot -17.1001 -2.69745
ltoes -20.9061
349
root 2.10018 17.7648 0.797991 3.26802 14.2104 -5.6272
lowerback 8.72525 3.97514 2.43044
upperback 0.67549 5.38713 -3.46204
thorax -3.61482 2.62286 -5.58533
lowerneck -23.6535 -14.7564 -14.0453
upperneck -5.82346 -16.3005 17.5266
head 4.5187 -6.92686 5.77823
rclavicle -6.79844e-014 0
rhumerus 67.4938 -19.4795 -21.9956
rradius 45.3474
rwrist 48.7267
rhand -56.3302 -3.7362
rfingers 7.12502
rthumb -28.6518 -31.5593
lclavicle -6.79844e-014 0
lhumerus -38.0999 16.3792 61.2444
lradius 38.1256
lwrist -4.46076
lhand -17.0468 25.0369
lfingers 7.12502
lthumb 9.19018 54.8166
rfemur -7.81539 -5.36309 16.0576
rtibia 22.2353
rfoot -17.6881 -13.1071
rtoes 1.47629
lfemur -16.5388 -1.65348 -10.3516
ltibia 31.8735
lfoot -17.0361 -2.52588
ltoes -21.0298
